<?xml version="1.0" encoding="utf-8"?>
<!-- Generator: Adobe Illustrator 24.2.3, SVG Export Plug-In . SVG Version: 6.00 Build 0)  -->
<svg version="1.1" id="Layer_1" xmlns="http://www.w3.org/2000/svg" xmlns:xlink="http://www.w3.org/1999/xlink" x="0px" y="0px"
	 viewBox="0 0 339.535 33.427" style="enable-background:new 0 0 339.535 33.427;" xml:space="preserve">
<style type="text/css">
	.st0{fill:#2D2D2D;}
</style>
<g>
	<path class="st0" d="M8.898,23.76l-2.79,9.187H0L10.389,0.529h7.551l10.533,32.417h-6.349L19.19,23.76H8.898z M18.181,19.287
		l-2.549-7.984c-0.625-1.972-1.154-4.185-1.635-6.06H13.9c-0.481,1.875-0.962,4.136-1.539,6.06L9.86,19.287H18.181z"/>
	<path class="st0" d="M33.814,26.501c1.924,1.106,4.81,2.068,7.839,2.068c3.8,0,5.916-1.779,5.916-4.425
		c0-2.453-1.635-3.896-5.771-5.387c-5.339-1.924-8.753-4.762-8.753-9.427C33.044,4.04,37.469,0,44.491,0
		c3.511,0,6.108,0.77,7.792,1.636L50.84,6.397c-1.154-0.626-3.415-1.539-6.445-1.539c-3.751,0-5.387,2.02-5.387,3.896
		c0,2.501,1.875,3.655,6.205,5.339c5.627,2.116,8.368,4.953,8.368,9.619c0,5.194-3.943,9.715-12.313,9.715
		c-3.415,0-6.974-0.962-8.753-2.02L33.814,26.501z"/>
	<path class="st0" d="M59.74,26.501c1.924,1.106,4.81,2.068,7.84,2.068c3.799,0,5.916-1.779,5.916-4.425
		c0-2.453-1.635-3.896-5.771-5.387c-5.338-1.924-8.753-4.762-8.753-9.427C58.971,4.04,63.396,0,70.418,0
		c3.511,0,6.108,0.77,7.792,1.636l-1.443,4.762c-1.154-0.626-3.415-1.539-6.445-1.539c-3.751,0-5.387,2.02-5.387,3.896
		c0,2.501,1.876,3.655,6.204,5.339c5.627,2.116,8.369,4.953,8.369,9.619c0,5.194-3.944,9.715-12.313,9.715
		c-3.415,0-6.974-0.962-8.754-2.02L59.74,26.501z"/>
	<path class="st0" d="M103.943,18.565H91.727v9.522h13.659v4.858H85.811V0.529h18.854v4.857H91.727v8.369h12.216V18.565z"/>
	<path class="st0" d="M118.23,5.483h-9.234V0.529h24.48v4.954h-9.33v27.463h-5.916V5.483z"/>
	<path class="st0" d="M153.438,5.483h-9.234V0.529h24.48v4.954h-9.33v27.463h-5.916V5.483z"/>
	<path class="st0" d="M173.449,0.962c2.212-0.385,5.531-0.673,8.945-0.673c4.666,0,7.84,0.77,10.004,2.597
		c1.78,1.491,2.79,3.752,2.79,6.493c0,4.185-2.838,7.022-5.868,8.128v0.145c2.309,0.866,3.704,3.126,4.521,6.253
		c1.01,4.04,1.875,7.791,2.549,9.042h-6.108c-0.48-0.962-1.25-3.607-2.164-7.647c-0.914-4.232-2.453-5.579-5.819-5.676h-2.982
		v13.323h-5.867V0.962z M179.316,15.295h3.511c3.992,0,6.493-2.116,6.493-5.339c0-3.559-2.501-5.194-6.349-5.194
		c-1.875,0-3.078,0.145-3.655,0.289V15.295z"/>
	<path class="st0" d="M208.608,23.76l-2.79,9.187h-6.108L210.1,0.529h7.551l10.533,32.417h-6.349l-2.934-9.187H208.608z
		 M217.891,19.287l-2.549-7.984c-0.625-1.972-1.154-4.185-1.635-6.06h-0.096c-0.481,1.875-0.962,4.136-1.539,6.06l-2.501,7.984
		H217.891z"/>
	<path class="st0" d="M255.89,31.984c-1.395,0.721-4.473,1.442-8.369,1.442c-10.292,0-16.545-6.444-16.545-16.305
		C230.976,6.445,238.383,0,248.291,0c3.896,0,6.685,0.818,7.888,1.443l-1.298,4.713c-1.539-0.673-3.655-1.25-6.349-1.25
		c-6.589,0-11.351,4.136-11.351,11.928c0,7.118,4.184,11.688,11.302,11.688c2.405,0,4.906-0.481,6.445-1.203L255.89,31.984z"/>
	<path class="st0" d="M261.904,0.529h5.868v14.91h0.144c0.77-1.251,1.588-2.405,2.357-3.512l8.465-11.398h7.311l-11.158,13.804
		l11.879,18.613h-6.926l-9.186-14.862l-2.886,3.463v11.399h-5.868V0.529z"/>
	<path class="st0" d="M308.992,18.565h-12.217v9.522h13.659v4.858H290.86V0.529h18.854v4.857h-12.938v8.369h12.217V18.565z"/>
	<path class="st0" d="M316.594,0.962c2.213-0.385,5.531-0.673,8.946-0.673c4.665,0,7.839,0.77,10.004,2.597
		c1.779,1.491,2.789,3.752,2.789,6.493c0,4.185-2.838,7.022-5.867,8.128v0.145c2.309,0.866,3.703,3.126,4.521,6.253
		c1.01,4.04,1.876,7.791,2.549,9.042h-6.107c-0.481-0.962-1.251-3.607-2.165-7.647c-0.913-4.232-2.452-5.579-5.819-5.676h-2.981
		v13.323h-5.868V0.962z M322.462,15.295h3.511c3.992,0,6.493-2.116,6.493-5.339c0-3.559-2.501-5.194-6.349-5.194
		c-1.876,0-3.078,0.145-3.655,0.289V15.295z"/>
</g>
</svg>
