<?xml version="1.0" encoding="utf-8"?>
<!-- Generator: Adobe Illustrator 24.2.3, SVG Export Plug-In . SVG Version: 6.00 Build 0)  -->
<svg version="1.1" id="Layer_1" xmlns="http://www.w3.org/2000/svg" xmlns:xlink="http://www.w3.org/1999/xlink" x="0px" y="0px"
	 viewBox="0 0 144 144" style="enable-background:new 0 0 144 144;" xml:space="preserve">
<style type="text/css">
	.st0{fill:#E1F2EB;}
	.st1{fill:#BBEDE0;}
	.st2{fill:#65B8A7;}
	.st3{fill:#3CAC8F;}
	.st4{fill:#0D374F;}
</style>
<g>
	<g>
		<path class="st0" d="M13.501,0.002c0,0-13.501,0-13.501,13.501v116.994c0,0,0,13.501,13.501,13.501h58.505V0.002H13.501z"/>
		<path class="st1" d="M130.505,0.002h-58.5v143.995h58.5c0,0,13.495,0,13.495-13.501V13.503C144,13.503,144,0.002,130.505,0.002"/>
		<polygon class="st2" points="23.336,45.825 23.336,111.724 47.505,99.942 47.505,33.838 		"/>
		<polygon class="st3" points="47.533,33.823 47.506,33.84 47.506,99.938 47.533,99.922 71.53,111.726 71.53,45.827 		"/>
		<polygon class="st2" points="71.532,45.825 71.532,45.825 71.532,111.724 96.312,99.726 96.312,33.822 		"/>
		<polygon class="st3" points="96.314,33.823 96.314,33.823 96.314,99.722 120.516,111.726 120.516,45.827 		"/>
		<path class="st4" d="M71.867,57.294c-6.686,0-12.133,5.448-12.133,12.133c0,2.005,0.508,3.989,1.465,5.761l10.004,18.1
			c0.135,0.249,0.395,0.395,0.665,0.395c0.276,0,0.535-0.146,0.67-0.395l10.004-18.111c0.957-1.762,1.454-3.745,1.454-5.75
			C83.995,62.741,78.552,57.294,71.867,57.294 M71.867,75.485c-3.34,0-6.064-2.713-6.064-6.059c0-3.34,2.724-6.069,6.064-6.069
			c3.34,0,6.064,2.729,6.064,6.069C77.931,72.772,75.207,75.485,71.867,75.485"/>
	</g>
</g>
</svg>
